HIERARCHY
ROOT Hips
{
	OFFSET 0.000000 71.427986 0.000000
	CHANNELS 6 Xposition Yposition Zposition Xrotation Yrotation Zrotation
	JOINT Pelvis
	{
		OFFSET 0.000000 0.000000 0.000000
		CHANNELS 3 Xrotation Yrotation Zrotation
		JOINT LeftUpLeg
		{
			OFFSET 6.797100 -2.508499 -1.318700
			CHANNELS 3 Xrotation Yrotation Zrotation
			JOINT LeftLeg
			{
				OFFSET 0.069008 -29.241863 0.690200
				CHANNELS 3 Xrotation Yrotation Zrotation
				JOINT LeftFoot
				{
					OFFSET -0.069008 -29.568123 -0.266800
					CHANNELS 3 Xrotation Yrotation Zrotation
					JOINT LeftToeBase
					{
						OFFSET 3.145500 -8.631000 16.059900
						CHANNELS 3 Xrotation Yrotation Zrotation
						End Site
						{
							OFFSET 0.000000 18.501587 0.000000
						}
					}
				}
			}
			JOINT Left_ShortSleeve
			{
				OFFSET 0.265923 -10.480953 1.153800
				CHANNELS 3 Xrotation Yrotation Zrotation
				End Site
				{
					OFFSET 1.725763 19.823879 0.000000
				}
			}
		}
		JOINT RightUpLeg
		{
			OFFSET -6.797100 -2.508499 -1.318700
			CHANNELS 3 Xrotation Yrotation Zrotation
			JOINT RightLeg
			{
				OFFSET -0.082453 -29.241932 0.688000
				CHANNELS 3 Xrotation Yrotation Zrotation
				JOINT RightFoot
				{
					OFFSET 0.082453 -29.568058 -0.264600
					CHANNELS 3 Xrotation Yrotation Zrotation
					JOINT RightToeBase
					{
						OFFSET -3.115300 -8.682800 16.113400
						CHANNELS 3 Xrotation Yrotation Zrotation
						End Site
						{
							OFFSET 0.000000 18.567114 0.000000
						}
					}
				}
			}
			JOINT Right_ShortSleeve
			{
				OFFSET -0.265923 -10.480953 1.153800
				CHANNELS 3 Xrotation Yrotation Zrotation
				End Site
				{
					OFFSET -1.725766 19.823910 0.000000
				}
			}
		}
	}
	JOINT Spine
	{
		OFFSET 0.000000 13.368103 0.470500
		CHANNELS 3 Xrotation Yrotation Zrotation
		JOINT Spine1
		{
			OFFSET 0.147000 13.837402 0.538800
			CHANNELS 3 Xrotation Yrotation Zrotation
			JOINT Spine2
			{
				OFFSET 0.168000 16.242897 -1.435500
				CHANNELS 3 Xrotation Yrotation Zrotation
				JOINT Neck
				{
					OFFSET 0.217200 18.631500 -1.679100
					CHANNELS 3 Xrotation Yrotation Zrotation
					JOINT Head
					{
						OFFSET 0.000000 6.599396 1.385900
						CHANNELS 3 Xrotation Yrotation Zrotation
						JOINT Hat
						{
							OFFSET -0.532200 27.220596 -10.096100
							CHANNELS 3 Xrotation Yrotation Zrotation
							End Site
							{
								OFFSET 0.000000 22.029861 0.000000
							}
						}
						JOINT HairD
						{
							OFFSET -10.777400 17.437393 -1.325900
							CHANNELS 3 Xrotation Yrotation Zrotation
							JOINT HairD1
							{
								OFFSET -3.290299 -11.051193 1.062200
								CHANNELS 3 Xrotation Yrotation Zrotation
								End Site
								{
									OFFSET 0.000000 11.579437 0.000000
								}
							}
						}
						JOINT HairB
						{
							OFFSET -10.777400 17.437393 1.467900
							CHANNELS 3 Xrotation Yrotation Zrotation
							JOINT HairB1
							{
								OFFSET -1.561200 -12.956299 3.590200
								CHANNELS 3 Xrotation Yrotation Zrotation
								End Site
								{
									OFFSET 0.000000 13.534866 0.000000
								}
							}
						}
						JOINT HairA
						{
							OFFSET 9.713100 17.437393 1.467900
							CHANNELS 3 Xrotation Yrotation Zrotation
							JOINT HairA1
							{
								OFFSET 1.561200 -12.956299 3.590200
								CHANNELS 3 Xrotation Yrotation Zrotation
								End Site
								{
									OFFSET 0.000000 13.534866 0.000000
								}
							}
						}
						JOINT HairC
						{
							OFFSET 9.713100 17.437393 -1.325900
							CHANNELS 3 Xrotation Yrotation Zrotation
							JOINT HairC1
							{
								OFFSET 3.290300 -11.051193 1.062200
								CHANNELS 3 Xrotation Yrotation Zrotation
								End Site
								{
									OFFSET 0.000000 11.579437 0.000000
								}
							}
						}
					}
				}
				JOINT LeftShoulder
				{
					OFFSET 5.101800 15.108002 -2.763700
					CHANNELS 3 Xrotation Yrotation Zrotation
					JOINT LeftArm
					{
						OFFSET 9.825497 2.506317 -1.597400
						CHANNELS 3 Xrotation Yrotation Zrotation
						JOINT LeftForeArm
						{
							OFFSET 21.966244 0.000000 0.000000
							CHANNELS 3 Xrotation Yrotation Zrotation
							JOINT LeftHand
							{
								OFFSET 33.879036 0.000000 0.000000
								CHANNELS 3 Xrotation Yrotation Zrotation
								JOINT LeftHandThumb1
								{
									OFFSET 6.715286 -2.359680 3.363841
									CHANNELS 3 Xrotation Yrotation Zrotation
									JOINT LeftHandThumb2
									{
										OFFSET 2.507072 -1.447464 1.447461
										CHANNELS 3 Xrotation Yrotation Zrotation
										JOINT LeftHandThumb3
										{
											OFFSET 2.898338 -1.673355 1.673357
											CHANNELS 3 Xrotation Yrotation Zrotation
											End Site
											{
												OFFSET -0.295959 3.727692 -0.131651
											}
										}
									}
								}
								JOINT LeftHandIndex1
								{
									OFFSET 14.190811 -0.254547 3.840278
									CHANNELS 3 Xrotation Yrotation Zrotation
									JOINT LeftHandIndex2
									{
										OFFSET 3.551727 0.000000 -0.000000
										CHANNELS 3 Xrotation Yrotation Zrotation
										JOINT LeftHandIndex3
										{
											OFFSET 2.894196 0.000000 0.000000
											CHANNELS 3 Xrotation Yrotation Zrotation
											End Site
											{
												OFFSET -1.000603 2.690872 0.366626
											}
										}
									}
								}
								JOINT LeftHandMiddle1
								{
									OFFSET 13.776489 0.000000 0.000000
									CHANNELS 3 Xrotation Yrotation Zrotation
									JOINT LeftHandMiddle2
									{
										OFFSET 3.438232 0.000000 0.000000
										CHANNELS 3 Xrotation Yrotation Zrotation
										JOINT LeftHandMiddle3
										{
											OFFSET 3.691551 0.000000 0.000000
											CHANNELS 3 Xrotation Yrotation Zrotation
											End Site
											{
												OFFSET -1.082298 3.499527 0.457670
											}
										}
									}
								}
								JOINT LeftHandRing1
								{
									OFFSET 13.966164 -0.268127 -3.067488
									CHANNELS 3 Xrotation Yrotation Zrotation
									JOINT LeftHandRing2
									{
										OFFSET 3.162567 0.000000 0.000000
										CHANNELS 3 Xrotation Yrotation Zrotation
										JOINT LeftHandRing3
										{
											OFFSET 3.324348 0.000000 0.000000
											CHANNELS 3 Xrotation Yrotation Zrotation
											End Site
											{
												OFFSET -0.861900 3.184998 0.405154
											}
										}
									}
								}
								JOINT LeftHandPinky1
								{
									OFFSET 13.131393 -0.168503 -5.746925
									CHANNELS 3 Xrotation Yrotation Zrotation
									JOINT LeftHandPinky2
									{
										OFFSET 2.849182 0.000000 0.000000
										CHANNELS 3 Xrotation Yrotation Zrotation
										JOINT LeftHandPinky3
										{
											OFFSET 2.805038 0.000000 0.000000
											CHANNELS 3 Xrotation Yrotation Zrotation
											End Site
											{
												OFFSET -0.882500 2.642609 0.325652
											}
										}
									}
								}
							}
							JOINT Left_Sleeve
							{
								OFFSET 6.592125 -0.646545 0.805568
								CHANNELS 3 Xrotation Yrotation Zrotation
								End Site
								{
									OFFSET -0.000179 20.275787 -0.000000
								}
							}
						}
					}
				}
				JOINT RightShoulder
				{
					OFFSET -5.731700 15.108002 -2.763700
					CHANNELS 3 Xrotation Yrotation Zrotation
					JOINT RightArm
					{
						OFFSET -9.825497 2.506317 -1.597400
						CHANNELS 3 Xrotation Yrotation Zrotation
						JOINT RightForeArm
						{
							OFFSET -21.966242 0.000000 0.000000
							CHANNELS 3 Xrotation Yrotation Zrotation
							JOINT RightHand
							{
								OFFSET -33.879032 0.000000 0.000000
								CHANNELS 3 Xrotation Yrotation Zrotation
								JOINT RightHandThumb1
								{
									OFFSET -6.715286 -2.359680 3.363841
									CHANNELS 3 Xrotation Yrotation Zrotation
									JOINT RightHandThumb2
									{
										OFFSET -2.507072 -1.447464 1.447461
										CHANNELS 3 Xrotation Yrotation Zrotation
										JOINT RightHandThumb3
										{
											OFFSET -2.898338 -1.673355 1.673357
											CHANNELS 3 Xrotation Yrotation Zrotation
											End Site
											{
												OFFSET 0.295959 3.727692 -0.131651
											}
										}
									}
								}
								JOINT RightHandIndex1
								{
									OFFSET -14.190811 -0.254547 3.840278
									CHANNELS 3 Xrotation Yrotation Zrotation
									JOINT RightHandIndex2
									{
										OFFSET -3.551727 0.000000 -0.000000
										CHANNELS 3 Xrotation Yrotation Zrotation
										JOINT RightHandIndex3
										{
											OFFSET -2.894196 0.000000 0.000000
											CHANNELS 3 Xrotation Yrotation Zrotation
											End Site
											{
												OFFSET 1.000603 2.690872 0.366626
											}
										}
									}
								}
								JOINT RightHandMiddle1
								{
									OFFSET -13.776489 0.000000 0.000000
									CHANNELS 3 Xrotation Yrotation Zrotation
									JOINT RightHandMiddle2
									{
										OFFSET -3.438232 0.000000 0.000000
										CHANNELS 3 Xrotation Yrotation Zrotation
										JOINT RightHandMiddle3
										{
											OFFSET -3.691551 0.000000 0.000000
											CHANNELS 3 Xrotation Yrotation Zrotation
											End Site
											{
												OFFSET 1.082298 3.499527 0.457670
											}
										}
									}
								}
								JOINT RightHandRing1
								{
									OFFSET -13.966164 -0.268127 -3.067488
									CHANNELS 3 Xrotation Yrotation Zrotation
									JOINT RightHandRing2
									{
										OFFSET -3.162567 0.000000 0.000000
										CHANNELS 3 Xrotation Yrotation Zrotation
										JOINT RightHandRing3
										{
											OFFSET -3.324348 0.000000 0.000000
											CHANNELS 3 Xrotation Yrotation Zrotation
											End Site
											{
												OFFSET 0.861900 3.184998 0.405154
											}
										}
									}
								}
								JOINT RightHandPinky1
								{
									OFFSET -13.131393 -0.168503 -5.746925
									CHANNELS 3 Xrotation Yrotation Zrotation
									JOINT RightHandPinky2
									{
										OFFSET -2.849182 0.000000 0.000000
										CHANNELS 3 Xrotation Yrotation Zrotation
										JOINT RightHandPinky3
										{
											OFFSET -2.805038 0.000000 0.000000
											CHANNELS 3 Xrotation Yrotation Zrotation
											End Site
											{
												OFFSET 0.882500 2.642609 0.325652
											}
										}
									}
								}
							}
							JOINT Right_Sleeve
							{
								OFFSET -6.592125 -0.646545 0.805568
								CHANNELS 3 Xrotation Yrotation Zrotation
								End Site
								{
									OFFSET 0.000179 20.275787 -0.000000
								}
							}
						}
					}
				}
				JOINT Bind_Right_JacketString
				{
					OFFSET -3.534800 11.969597 7.200700
					CHANNELS 3 Xrotation Yrotation Zrotation
					JOINT Bind_Right_JacketString1
					{
						OFFSET -0.319900 -6.102600 2.794100
						CHANNELS 3 Xrotation Yrotation Zrotation
						End Site
						{
							OFFSET 0.000000 6.719452 0.000000
						}
					}
				}
				JOINT Bind_Left_JacketString
				{
					OFFSET 2.904800 11.969597 7.200700
					CHANNELS 3 Xrotation Yrotation Zrotation
					JOINT Bind_Left_JacketString1
					{
						OFFSET 0.364800 -5.904503 3.186800
						CHANNELS 3 Xrotation Yrotation Zrotation
						End Site
						{
							OFFSET 0.000000 6.719513 0.000000
						}
					}
				}
				JOINT HairE
				{
					OFFSET 5.915200 17.612701 -11.592200
					CHANNELS 3 Xrotation Yrotation Zrotation
					JOINT HairE1
					{
						OFFSET 0.289200 -7.171898 -1.284500
						CHANNELS 3 Xrotation Yrotation Zrotation
						End Site
						{
							OFFSET 0.000000 7.291756 0.000000
						}
					}
				}
				JOINT HairF
				{
					OFFSET -0.864800 17.612701 -11.592200
					CHANNELS 3 Xrotation Yrotation Zrotation
					JOINT HairF1
					{
						OFFSET 0.000000 -14.087097 -2.127501
						CHANNELS 3 Xrotation Yrotation Zrotation
						End Site
						{
							OFFSET 0.000000 14.246841 0.000000
						}
					}
				}
				JOINT HairG
				{
					OFFSET -8.087700 17.612701 -11.592200
					CHANNELS 3 Xrotation Yrotation Zrotation
					JOINT HairG1
					{
						OFFSET -0.293600 -6.081398 -0.910100
						CHANNELS 3 Xrotation Yrotation Zrotation
						End Site
						{
							OFFSET 0.000000 6.156120 0.000000
						}
					}
				}
			}
		}
	}
	JOINT Pouch
	{
		OFFSET 0.000000 4.394501 10.847300
		CHANNELS 3 Xrotation Yrotation Zrotation
		End Site
		{
			OFFSET 0.000000 21.880577 0.000000
		}
	}
	JOINT Bag
	{
		OFFSET -13.229000 4.813004 -0.593300
		CHANNELS 3 Xrotation Yrotation Zrotation
		End Site
		{
			OFFSET 0.000000 21.880577 0.000000
		}
	}
	JOINT OccupyGuyFacialAnim_Joint
	{
		OFFSET 1.000000 -70.206398 -1.655000
		CHANNELS 3 Xrotation Yrotation Zrotation
		End Site
		{
			OFFSET 0.000000 21.880577 0.000000
		}
	}
}
MOTION
Frames: 4
Frame Time: 0.033333
-5.089272 61.634079 -7.080254 82.340717 76.134363 -78.110262 0.000000 -0.000000 -0.000001 -59.675301 25.902693 15.502837 54.509240 -4.407243 -2.698395 -15.651732 22.781001 7.787487 -0.000000 -0.000002 -0.000000 0.000001 -0.000000 0.000001 -54.792884 -2.954840 -18.763906 77.967436 -2.294099 2.752937 -17.784382 -11.391997 11.532923 -0.000001 0.000001 -0.000000 -0.000001 -0.000001 -0.000000 23.481448 -4.178297 -9.434077 4.714234 -0.381106 -2.942862 4.714573 -0.294155 -2.958963 2.047661 1.838079 1.439146 -40.605434 33.551095 2.635772 0.000000 -0.000002 0.000000 0.000000 -0.000002 0.000000 0.000000 -0.000002 -0.000000 0.000000 -0.000002 -0.000000 -0.000000 -0.000000 -0.000000 0.000000 -0.000002 -0.000000 -0.000000 -0.000000 -0.000000 0.000000 -0.000002 0.000000 0.000000 -0.000002 0.000000 3.782201 -16.410706 -8.516221 -22.992505 29.674255 -60.357712 -0.007033 -92.272816 -0.006947 -128.424304 8.859908 2.124919 29.137748 -18.963675 21.605727 -27.513238 19.080514 -8.263454 0.000001 -0.000003 -0.000001 -2.661264 2.765114 -49.824949 3.313161 5.273715 -64.255291 0.000001 -0.000000 0.000002 1.647746 6.642522 -59.749716 3.157732 5.196226 -62.551754 0.000000 0.000002 0.000001 5.598877 8.418765 -71.167265 3.832609 5.493029 -69.787547 -0.000002 0.000002 -0.000001 8.696894 8.867705 -78.711913 2.834457 5.015810 -58.920634 0.000000 0.000001 0.000001 -0.000001 -0.000001 0.000000 0.147858 27.559644 10.237511 4.976461 28.235032 22.348779 -0.000127 112.720463 0.000128 -20.957821 -20.377786 9.483151 61.632212 28.897718 -13.280778 0.330337 -35.814821 7.397292 0.000001 0.000002 0.000002 -0.575485 -0.947559 17.139380 0.321364 -1.701664 21.388406 -0.000001 -0.000000 -0.000002 0.670068 -5.101771 53.857735 5.248149 -4.619609 97.298087 0.000001 -0.000002 0.000002 7.412619 -8.470597 67.075470 3.825485 -4.582455 79.701846 0.000003 -0.000000 0.000002 7.484588 -8.453018 67.591764 1.968018 -3.803725 54.700946 0.000000 0.000000 -0.000001 0.000000 0.000000 -0.000000 0.000001 -0.000000 0.000000 -0.000001 -0.000000 -0.000000 0.000001 -0.000000 -0.000000 0.000001 -0.000000 -0.000000 0.000001 -0.000000 0.000000 -0.000001 -0.000000 -0.000000 0.000001 -0.000000 -0.000000 0.000001 -0.000000 -0.000000 0.000001 -0.000000 0.000000 -0.000001 -0.000000 -0.000000 0.000000 -0.000000 -0.000001 0.000000 -0.000000 -0.000001 0.000000 -0.000000 -0.000001 
-4.412413 61.242226 -6.667935 91.773352 76.096722 -87.841069 -0.000000 0.000000 0.000000 -60.459414 25.109749 15.488659 56.272074 -6.144121 -2.701216 -16.631417 22.730916 8.066084 -0.000000 -0.000002 0.000000 0.000002 0.000001 0.000000 -55.605215 -1.271652 -17.567904 78.607773 -2.257659 1.264345 -18.231016 -8.422102 11.766812 0.000000 -0.000000 0.000000 -0.000002 0.000000 0.000000 23.237497 -4.250927 -9.382058 4.731929 -0.424199 -2.892394 4.734029 -0.341858 -2.904919 2.075146 1.791891 1.509702 -40.646162 32.109501 3.183795 -0.000000 -0.000003 0.000000 -0.000000 -0.000003 0.000000 -0.000000 -0.000003 0.000000 -0.000000 -0.000003 0.000000 -0.000000 0.000001 -0.000000 -0.000000 -0.000003 0.000000 -0.000000 0.000001 -0.000000 -0.000000 -0.000003 0.000000 -0.000000 -0.000003 0.000000 3.757766 -16.572341 -8.768202 -23.727729 29.700480 -59.453491 -0.130244 -91.954926 -0.130029 -128.738561 8.914017 2.361062 29.205045 -19.099395 21.851175 -27.513240 19.080519 -8.263460 0.000000 0.000001 -0.000001 -2.662313 2.741386 -49.667500 3.315208 5.274695 -64.277592 0.000003 0.000001 -0.000002 1.635611 6.630543 -59.590375 3.158564 5.196667 -62.561029 0.000001 -0.000002 0.000000 5.603837 8.425535 -71.000814 3.832322 5.492925 -69.784589 0.000002 0.000000 -0.000001 8.699034 8.880315 -78.540489 2.835831 5.016634 -58.936370 -0.000001 -0.000001 0.000003 -0.000000 -0.000004 0.000001 0.203883 27.479851 9.967308 4.557167 28.993829 22.590519 0.000041 112.085925 -0.000033 -21.141589 -20.374934 9.391426 61.632212 28.897714 -13.280774 0.330336 -35.814828 7.397291 -0.000005 0.000000 0.000001 -0.575485 -0.947555 17.139376 0.321362 -1.701665 21.388401 0.000000 0.000000 -0.000001 0.670069 -5.101774 53.857735 5.248144 -4.619606 97.298080 0.000001 0.000001 0.000001 7.412619 -8.470602 67.075470 3.825484 -4.582458 79.701846 -0.000000 -0.000002 0.000005 7.484587 -8.453020 67.591757 1.968022 -3.803723 54.700953 -0.000001 -0.000000 -0.000003 -0.000000 0.000001 0.000001 0.000002 -0.000001 0.000000 0.000002 0.000000 0.000001 0.000002 -0.000001 0.000000 0.000002 -0.000001 0.000000 0.000002 -0.000001 0.000000 0.000002 0.000000 0.000001 0.000002 -0.000001 0.000000 0.000002 -0.000001 0.000000 0.000002 -0.000001 0.000000 0.000002 0.000000 0.000001 -0.000000 0.000000 0.000000 -0.000000 0.000000 0.000000 -0.000000 0.000000 0.000000 
-3.800356 60.870819 -6.149251 100.382921 75.759967 -96.953067 0.000000 0.000000 -0.000000 -61.374529 24.289959 15.908996 57.906610 -7.833813 -2.703602 -17.369285 22.449645 8.269278 -0.000000 -0.000004 -0.000000 -0.000000 0.000001 0.000000 -56.048775 0.291687 -16.174446 78.635483 -1.910056 -0.062983 -19.100156 -5.965265 11.872538 -0.000001 -0.000001 -0.000000 -0.000005 -0.000001 -0.000000 23.176164 -4.470240 -9.184044 4.689002 -0.489525 -2.931943 4.692748 -0.401018 -2.943037 2.093968 1.767466 1.551765 -40.688557 30.606665 3.749225 -0.000000 0.000003 -0.000000 -0.000000 0.000003 -0.000000 -0.000000 0.000003 -0.000000 -0.000000 0.000003 -0.000000 -0.000001 0.000001 0.000000 -0.000000 0.000003 -0.000000 -0.000001 0.000001 0.000000 -0.000000 0.000003 -0.000000 -0.000000 0.000003 -0.000000 3.802350 -16.330142 -8.045044 -23.094166 29.854234 -60.035239 0.007120 -91.336370 0.007084 -129.328703 8.840073 1.754993 29.234337 -19.172548 21.963097 -27.513247 19.080519 -8.263460 0.000002 -0.000004 0.000003 -2.662718 2.731225 -49.600123 3.316233 5.275187 -64.288746 -0.000000 0.000001 0.000000 1.629484 6.624864 -59.522332 3.159130 5.196944 -62.567292 0.000001 0.000003 0.000001 5.607202 8.428893 -70.929486 3.832002 5.492810 -69.781201 0.000000 -0.000001 -0.000002 8.701068 8.885984 -78.466729 2.836470 5.017019 -58.943706 0.000002 -0.000001 -0.000001 -0.000000 -0.000003 -0.000003 0.092070 27.724677 10.474662 4.180983 29.376459 22.449218 0.000000 111.587171 -0.000009 -21.085914 -20.970370 10.187198 61.632205 28.897721 -13.280779 0.330342 -35.814821 7.397290 -0.000004 0.000000 0.000003 -0.575484 -0.947559 17.139380 0.321364 -1.701664 21.388406 0.000002 -0.000001 -0.000003 0.670070 -5.101774 53.857732 5.248145 -4.619605 97.298080 0.000002 -0.000004 -0.000001 7.412621 -8.470600 67.075470 3.825482 -4.582459 79.701833 0.000001 -0.000004 -0.000001 7.484589 -8.453026 67.591757 1.968017 -3.803726 54.700950 0.000001 -0.000001 0.000000 0.000000 -0.000001 -0.000001 -0.000001 0.000000 -0.000001 -0.000001 -0.000000 -0.000000 -0.000001 0.000000 -0.000000 -0.000001 0.000000 -0.000000 -0.000001 0.000000 -0.000001 -0.000001 -0.000000 -0.000000 -0.000001 0.000000 -0.000000 -0.000001 0.000000 -0.000000 -0.000001 0.000000 -0.000001 -0.000001 -0.000000 -0.000000 0.000000 0.000000 -0.000000 0.000000 0.000000 -0.000000 0.000000 0.000000 -0.000000 
-3.229061 60.512642 -5.538894 107.934918 75.138754 -105.119535 -0.000000 -0.000000 -0.000000 -62.342490 23.220391 16.457255 59.458381 -8.508872 -2.702816 -17.781057 21.368206 8.013948 -0.000000 0.000001 0.000000 -0.000000 0.000003 0.000001 -55.798114 1.884826 -14.831057 76.951732 -0.609637 -1.148308 -21.171443 -4.299893 11.583798 -0.000000 -0.000001 0.000000 -0.000000 0.000000 -0.000000 23.160702 -4.581391 -8.993697 4.694230 -0.540678 -2.902055 4.699729 -0.451737 -2.910543 2.104115 1.763832 1.571347 -40.727035 29.060788 4.319076 0.000001 0.000002 -0.000000 0.000001 0.000002 -0.000000 0.000001 0.000002 -0.000000 0.000001 0.000002 -0.000000 -0.000000 -0.000002 -0.000000 0.000001 0.000002 -0.000000 -0.000000 -0.000002 -0.000000 0.000001 0.000002 -0.000000 0.000001 0.000002 -0.000000 3.802864 -16.344663 -7.961221 -23.782560 29.859757 -59.486740 -0.006210 -90.795002 -0.006134 -129.616582 9.071179 1.743339 29.212603 -19.393697 21.987059 -27.513238 19.080523 -8.263461 -0.000003 -0.000002 -0.000001 -2.662320 2.740944 -49.664580 3.318395 5.276223 -64.312248 -0.000002 0.000002 -0.000003 1.633389 6.629267 -59.590703 3.159460 5.197112 -62.570823 0.000001 0.000004 -0.000001 5.628815 8.434274 -70.994386 3.831670 5.492683 -69.777800 0.000001 0.000000 -0.000001 8.720126 8.885399 -78.529458 2.837347 5.017540 -58.953651 0.000003 -0.000001 -0.000001 -0.000000 -0.000001 0.000001 0.050642 27.918402 10.607301 3.958428 29.900939 22.114771 -0.000036 111.070105 0.000029 -21.320888 -21.015935 9.946717 61.632212 28.897721 -13.280779 0.330337 -35.814824 7.397288 0.000000 -0.000000 0.000003 -0.575485 -0.947563 17.139380 0.321365 -1.701662 21.388404 -0.000001 -0.000001 0.000000 0.670069 -5.101777 53.857732 5.248143 -4.619606 97.298080 -0.000001 -0.000000 0.000001 7.412619 -8.470603 67.075470 3.825486 -4.582460 79.701839 0.000001 -0.000001 -0.000002 7.484589 -8.453022 67.591757 1.968020 -3.803720 54.700946 0.000000 0.000000 -0.000003 0.000003 -0.000000 -0.000000 0.000003 -0.000000 -0.000000 0.000003 -0.000000 0.000000 0.000003 -0.000000 -0.000000 0.000003 -0.000000 -0.000000 0.000003 -0.000000 -0.000000 0.000003 -0.000000 0.000000 0.000003 -0.000000 -0.000000 0.000003 -0.000000 -0.000000 0.000003 -0.000000 -0.000000 0.000003 -0.000000 0.000000 -0.000000 -0.000000 -0.000000 -0.000000 -0.000000 -0.000000 -0.000000 -0.000000 -0.000000 
